<svg xmlns="http://www.w3.org/2000/svg" viewBox="0 0 100 100"><path d="M62.21 43.568c-2.74 0-4.892-.837-6.393-2.486-2.175-2.39-2.132-5.582-2.013-6.843.21-2.224.514-4.463.808-6.628.932-6.867 1.81-13.354.052-19.84a2 2 0 0 1 3.86-1.046c1.972 7.268.996 14.464.052 21.423-.288 2.125-.586 4.324-.79 6.466-.11 1.177.09 2.786.99 3.774.71.78 1.867 1.178 3.435 1.178 2.557 0 5.26-2.58 5.26-5.02a2 2 0 0 1 4 0c0 4.637-4.5 9.02-9.26 9.02zM28.667 16H20c-1.65 0-3 .775-3 1.875s1.35 1.972 3 2.015l8.488.312c.12-1.45.187-3.202.18-4.202z"/><path d="M62.67 16c.008 1-.078 3.334-.222 5.04L95 21.75V16H62.67zM61.822 7.726c.378 1.733.61 3.274.734 5.274H95V6.75l-33.178.976zM27.77 8.684c-.01-.028-.008-.12-.015-.147L20 8.705c-1.65.042-3 1.086-3 2.186S18.35 13 20 13h8.518c-.138-2-.374-2.936-.75-4.316zM29.854 45h4.044c-.855-5.498-.11-11.037.678-16.85.944-6.96 1.92-14.156-.052-21.424a2 2 0 0 0-3.86 1.047c1.758 6.485.878 12.97-.053 19.838-.766 5.668-1.555 11.494-.756 17.388zM37.854 45h4.044c-.855-5.498-.11-11.037.678-16.85.944-6.96 1.92-14.156-.052-21.424a2 2 0 0 0-3.86 1.047c1.758 6.485.878 12.97-.053 19.838-.766 5.668-1.555 11.494-.756 17.388zM45.854 45h4.044c-.855-5.498-.11-11.037.678-16.85.944-6.96 1.92-14.156-.052-21.424a2 2 0 0 0-3.86 1.047c1.758 6.485.878 12.97-.053 19.838-.766 5.668-1.555 11.494-.756 17.388zM95 48H5c0 17.67 13.555 32.63 31 34.638V89a4 4 0 0 0 4 4h20a4 4 0 0 0 4-4v-6.3C81.445 80.682 95 65.67 95 48z"/></svg>