<svg xmlns:x="http://ns.adobe.com/Extensibility/1.0/" xmlns:i="http://ns.adobe.com/AdobeIllustrator/10.0/" xmlns:graph="http://ns.adobe.com/Graphs/1.0/" xmlns="http://www.w3.org/2000/svg" xmlns:xlink="http://www.w3.org/1999/xlink" xmlns:a="http://ns.adobe.com/AdobeSVGViewerExtensions/3.0/" version="1.1" x="0px" y="0px" viewBox="0 0 100 100" enable-background="new 0 0 100 100" xml:space="preserve"><g><path d="M62.211,43.568c-2.742,0-4.893-0.837-6.394-2.486c-2.175-2.391-2.132-5.582-2.013-6.843   c0.21-2.223,0.514-4.462,0.808-6.627c0.932-6.867,1.811-13.354,0.052-19.839c-0.289-1.066,0.34-2.164,1.407-2.454   c1.071-0.284,2.165,0.342,2.454,1.407c1.971,7.268,0.995,14.464,0.051,21.423c-0.288,2.126-0.586,4.325-0.789,6.467   c-0.111,1.177,0.09,2.786,0.989,3.774c0.711,0.781,1.867,1.178,3.435,1.178c2.556,0,5.26-2.58,5.26-5.02c0-1.104,0.896-2,2-2   s2,0.896,2,2C71.471,39.185,66.971,43.568,62.211,43.568z"></path><path d="M28.667,16H20c-1.65,0-3,0.775-3,1.875s1.35,1.972,2.999,2.015l8.489,0.312C28.608,18.752,28.675,17,28.667,16z"></path><path d="M62.671,16c0.007,1-0.079,3.334-0.223,5.04L95,21.75V16H62.671z"></path><path d="M61.822,7.726C62.2,9.459,62.432,11,62.556,13H95V6.75L61.822,7.726z"></path><path d="M27.769,8.684c-0.008-0.028-0.007-0.119-0.014-0.147l-7.756,0.168C18.35,8.747,17,9.791,17,10.891S18.35,13,20,13h8.518   C28.38,11,28.144,10.064,27.769,8.684z"></path><path d="M29.854,45h4.044c-0.855-5.498-0.11-11.037,0.678-16.851c0.944-6.959,1.919-14.155-0.052-21.423   c-0.289-1.065-1.383-1.691-2.454-1.407c-1.066,0.29-1.696,1.388-1.407,2.454c1.759,6.486,0.879,12.972-0.052,19.839   C29.844,33.28,29.055,39.106,29.854,45z"></path><path d="M37.854,45h4.044c-0.855-5.498-0.11-11.037,0.678-16.851c0.944-6.959,1.919-14.155-0.052-21.423   c-0.289-1.065-1.385-1.691-2.454-1.407c-1.066,0.29-1.696,1.388-1.407,2.454c1.759,6.486,0.879,12.972-0.052,19.839   C37.844,33.28,37.055,39.106,37.854,45z"></path><path d="M45.854,45h4.044c-0.855-5.498-0.11-11.037,0.678-16.851c0.944-6.959,1.919-14.155-0.052-21.423   c-0.289-1.065-1.384-1.691-2.454-1.407c-1.066,0.29-1.696,1.388-1.407,2.454c1.759,6.486,0.879,12.972-0.052,19.839   C45.844,33.28,45.055,39.106,45.854,45z"></path><path d="M95,48H5c0,17.67,13.555,32.629,31,34.638V89c0,2.209,1.791,4,4,4h20c2.209,0,4-1.791,4-4v-6.301   C81.445,80.683,95,65.67,95,48z"></path></g></svg>