<svg xmlns="http://www.w3.org/2000/svg" viewBox="0 0 100 100"><circle cx="50" cy="50" r="2.75"/><path d="M50 0C22.386 0 0 22.386 0 50s22.386 50 50 50 50-22.386 50-50S77.614 0 50 0zM15.284 37.634l-3.922-.785c.058-.29 1.51-7.17 9.622-15.282 8.113-8.113 14.992-9.564 15.28-9.622l.394 1.96.403 1.96c-.06.013-6.066 1.35-13.248 8.53-7.266 7.266-8.516 13.18-8.528 13.238zm12.842 1.552l-3.918-.804c.084-.423.957-4.26 5.497-8.8 4.54-4.54 8.377-5.412 8.8-5.497l.392 1.96.412 1.958c-.03.007-3.088.718-6.777 4.407-3.69 3.69-4.4 6.746-4.407 6.776zM50 65c-8.284 0-15-6.716-15-15s6.716-15 15-15 15 6.716 15 15-6.716 15-15 15zm11.25 7.286c.01-.003 3.067-.714 6.757-4.402 3.71-3.71 4.397-6.728 4.403-6.757l3.922.785c-.084.422-.957 4.26-5.497 8.8-4.54 4.54-8.378 5.412-8.8 5.496l-.785-3.922zm17.6 7.147c-8.114 8.112-14.993 9.563-15.282 9.62l-.785-3.92c.05-.012 6.058-1.35 13.238-8.528 7.267-7.267 8.518-13.18 8.53-13.238l3.92.785c-.057.288-1.508 7.167-9.62 15.28z"/></svg>