<svg xmlns="http://www.w3.org/2000/svg" viewBox="0 0 65.18 100"><path d="M35.48 39.365a5.49 5.49 0 0 0-.325 1.38c-.053.517-.04 1.038.057 1.554.058.308.13.616.24.917a5.513 5.513 0 0 0 2.89 3.12 5.5 5.5 0 0 0 2.314.507c.996 0 1.95-.28 2.78-.764a5.59 5.59 0 0 0 1.228-.964c.325-.34.606-.725.84-1.145.066-.12.142-.236.2-.364 0 0 11.078-24.098 11.102-24.147.023-.053.334-.975.4-1.346.435-2.428-.783-4.94-3.127-6.02a5.484 5.484 0 0 0-2.314-.508c-1.688 0-3.258.78-4.3 2.052-.293.36-.55.75-.748 1.183 0-.003.002-.007.004-.01l-.006.012-.004.006L35.616 38.97c-.058.13-.09.263-.137.395zM40.476 12.83c.235.236.388.544.5.88.263.8.22 1.823 0 2.86-.11.53-.26 1.054-.44 1.55a9.85 9.85 0 0 1-.215.565c-.112.275-.26.595-.433.933-1.504 2.975-5.374 7.975-14.463 8.285h-.017L21.62 35.79c2.366.56 6.577 1.88 10.227 4.73l12.345-26.86c.202-.437.32-.888.4-1.343.433-2.43-.782-4.945-3.126-6.022a5.528 5.528 0 0 0-2.313-.508c-1.688 0-3.257.78-4.298 2.052-.296.358-.554.75-.754 1.183l.007-.01-.006.01-.002.007-1.56 3.395h7.532l.406.405zM25.86 12.424H29.482l2.088-4.55c.2-.437.32-.89.4-1.343.432-2.428-.783-4.942-3.127-6.02A5.538 5.538 0 0 0 26.528 0a5.57 5.57 0 0 0-4.3 2.053 5.51 5.51 0 0 0-.75 1.185c0 .002-.004.004-.004.006l-4.213 9.18H25.86zM31.578 7.86l.003-.006-.002.007-.005.014zM55.55 28.84zM44.95 45.252l.002-.004h-.002zM44.954 45.24l-.002.005z"/><path d="M65.18 33.276c0-.624-.348-1.915-.362-1.927-.785-2.116-2.805-3.63-5.19-3.63-.502 0-.98.09-1.442.214a5.524 5.524 0 0 0-2.145 1.13 5.53 5.53 0 0 0-1.614 2.316c-.004.012-.006.026-.012.038l-6.94 14.99h.003a3.75 3.75 0 0 0-.332 1.377c-.008.166 0 .33.013.492a3.738 3.738 0 0 0 2.16 3.103c.604.28 1.255.362 1.89.297a3.932 3.932 0 0 0 2.242-.996c.295-.27.54-.6.73-.96l3.606-7.788 2.52 1.163.25-.543-3.74 8.143-.007.012c-.063.135-.138.26-.212.386a6.477 6.477 0 0 1-1.897 2.142 6.485 6.485 0 0 1-3.494 1.247c-.11.007-.218.02-.327.02a6.48 6.48 0 0 1-5.66-3.318 6.56 6.56 0 0 1-.678-1.78 6.412 6.412 0 0 1-.123-.705 8.28 8.28 0 0 1-1.338.554 8.274 8.274 0 0 1-2.425.368c-.966 0-1.61-.172-2.512-.497a19.05 19.05 0 0 1 .83 5.63V65.28H36.2V54.756c0-2.52-.79-4.656-1.6-6.478-3.793-8.545-14.628-10.023-15.18-10.092l-1.915-.24 6.146-12.802h.876c.232 0 .43-.03.652-.035a22.03 22.03 0 0 0 1.568-.084c5.297-.55 8.203-3.018 9.74-5.135.132-.184.248-.368.365-.55.273-.425.5-.84.69-1.247.22-.463.39-.906.518-1.313a7.386 7.386 0 0 0 .328-1.578H15.408a7.627 7.627 0 0 0-6.5 3.64 7.69 7.69 0 0 0-.762 1.635L.928 35.957l-.37.796a7.607 7.607 0 0 0 .456 6.65l.78 1.12 17.74 23.49v31.984h33.33V100h2.777l.003-23.61 8.82-17.956c.125-.223.244-.446.338-.687a5.475 5.475 0 0 0 .38-1.908V33.275z"/></svg>